<svg xmlns="http://www.w3.org/2000/svg" xml:space="preserve" width="1500" height="1500" viewBox="0 0 1500 1500" data-version="1" data-id="lg_i4kifz6QQ7OjsOUy8d" x="0" y="0"><rect width="1500" height="1500" id="background" stroke="transparent" fill="#111111"></rect><g id="outer-wrapper" data-padding="20" transform="matrix(1.6,0,0,1.6,-450,-450)"><g id="inner-wrapper" transform="matrix(0.968,0,0,0.968,10,9.26400000000001)"><rect width="625.246" height="578.56" x="51.819809917355315" y="75.92314049586787" fill="none" rx="0" ry="0" transform="translate(400.02 400.02)"></rect><path fill="#fff" d="M554.1428099173554 708.9631404958678L710.3028099173554 525.6731404958679Q717.9828099173553 516.4531404958678 727.7028099173554 516.4531404958678Q738.4628099173553 516.4531404958678 749.7228099173553 526.1831404958679Q755.3528099173553 531.8131404958679 759.1928099173554 537.4431404958679T763.0328099173553 548.7131404958678Q763.0328099173553 557.9231404958679 756.3828099173554 564.5831404958678L687.7728099173553 644.4531404958678L554.1428099173554 801.6331404958678V904.5531404958679Q554.1428099173554 929.1231404958679 523.4228099173554 929.1231404958679Q493.21280991735534 929.1231404958679 493.21280991735534 904.5531404958679V541.5431404958679Q493.21280991735534 516.9631404958678 523.4228099173554 516.9631404958678Q554.1428099173554 516.9631404958678 554.1428099173554 541.5431404958679ZM734.8728099173553 910.6931404958679L637.5928099173553 768.8731404958678Q632.4728099173553 761.7031404958678 632.4728099173553 751.4631404958678Q632.4728099173553 736.1031404958678 645.2728099173553 726.8831404958678H644.7628099173553Q655.0028099173553 719.7131404958678 665.2428099173553 719.7131404958678Q674.9728099173553 719.7131404958678 681.6228099173554 730.9831404958678L780.4428099173554 875.3631404958678L779.9328099173554 874.8531404958678Q784.5428099173554 882.0231404958679 784.5428099173554 890.2131404958678Q784.5428099173554 903.5231404958678 771.2228099173553 913.7631404958678H771.7428099173553Q766.1028099173554 917.3531404958678 760.9828099173553 919.3931404958678Q755.8628099173554 921.4431404958677 751.7728099173554 921.4431404958677Q747.6728099173554 921.4431404958677 743.3228099173555 918.3731404958677T734.8728099173554 910.6931404958677M963.7528099173554 571.2231404958677V905.5631404958677Q963.7528099173554 930.1431404958678 933.0328099173554 930.1431404958678Q902.8228099173554 930.1431404958678 902.8228099173554 905.5631404958677V571.2231404958678H813.2228099173553Q794.7928099173553 571.2231404958678 793.7628099173553 545.1131404958678Q793.7628099173553 519.5131404958679 813.2228099173553 519.5131404958679H1053.3528099173552Q1072.8028099173553 519.5131404958679 1071.7828099173553 545.1131404958678Q1071.7828099173553 571.2231404958679 1053.3528099173552 571.2231404958679Z "></path></g><rect width="625" height="579" x="437.5" y="460.5" id="space-saver" fill="transparent" stroke="transparent"></rect></g></svg>
